<svg width="838" height="915" viewBox="0 0 838 915" fill="none" xmlns="http://www.w3.org/2000/svg">
<path d="M597.301 100.3L661.393 140.35L227.903 834.079L163.81 794.03L597.301 100.3Z" fill="#01A6EB"/>
<path fill-rule="evenodd" clip-rule="evenodd" d="M238.174 20.2993C222.792 -6.443 184.208 -6.44304 168.826 20.2993L6.19307 303.057C-9.14474 329.723 10.1038 363 40.8667 363H366.133C396.896 363 416.145 329.723 400.807 303.057L238.174 20.2993ZM222.978 132.008C215.287 118.637 195.995 118.637 188.304 132.008L111.623 265.327C103.954 278.66 113.579 295.298 128.96 295.298H282.322C297.704 295.298 307.328 278.66 299.659 265.327L222.978 132.008Z" fill="#F18867"/>
<path fill-rule="evenodd" clip-rule="evenodd" d="M599.85 894.79C615.242 921.477 653.758 921.477 669.15 894.79L831.687 612.985C847.067 586.318 827.822 553 797.037 553L471.963 553C441.179 553 421.933 586.318 437.313 612.985L599.85 894.79ZM615.034 783.371C622.73 796.715 641.988 796.715 649.684 783.371L726.317 650.506C734.007 637.173 724.384 620.513 708.992 620.513L555.726 620.513C540.334 620.513 530.711 637.173 538.401 650.506L615.034 783.371Z" fill="#F18867"/>
</svg>
